<svg width="24" height="24" viewBox="0 0 1000 1000" xmlns="http://www.w3.org/2000/svg"><path d="M 75 0C 75 0 75 0 75 0C 33 0 0 33 0 75C 0 75 0 925 0 925C 0 967 33 1000 75 1000C 75 1000 925 1000 925 1000C 967 1000 1000 967 1000 925C 1000 925 1000 75 1000 75C 1000 33 967 0 925 0C 925 0 75 0 75 0M 579 148C 595 192 603 238 612 284C 663 306 702 255 710 210C 723 168 726 115 765 88C 814 63 861 115 861 163C 865 213 850 263 827 307C 787 361 743 414 691 456C 662 501 730 520 751 549C 796 584 815 641 822 696C 836 742 867 782 883 828C 870 880 812 912 761 915C 701 924 686 856 688 810C 681 761 665 699 613 680C 546 660 592 748 574 787C 563 847 534 914 470 933C 413 954 348 979 289 950C 243 933 220 872 242 829C 264 788 316 792 355 790C 404 785 428 727 402 686C 375 637 346 589 319 541C 269 565 212 580 173 622C 138 650 94 695 46 671C 2 648 -17 583 20 546C 61 500 115 465 170 439C 202 418 271 417 280 383C 259 305 228 217 267 139C 306 75 385 41 458 40C 459 40 460 40 461 40C 521 40 563 95 579 148C 579 148 579 148 579 148M 347 194C 342 235 357 294 407 297C 458 300 519 290 550 246C 565 205 545 159 524 124C 512 104 488 96 465 96C 465 96 464 96 464 96C 408 96 350 135 347 194C 347 194 347 194 347 194M 512 146C 516 154 500 162 495 155C 488 145 481 132 491 127C 492 126 493 125 495 125C 503 125 509 139 512 146C 512 146 512 146 512 146M 528 187C 534 191 536 202 536 210C 536 218 537 225 535 234C 532 242 513 241 513 230C 514 219 515 222 515 214C 515 206 509 201 510 193C 511 188 516 185 521 185C 523 185 525 186 528 187C 528 187 528 187 528 187"/></svg>
